<?xml version="1.0" encoding="utf-8"?>
<!-- Generator: Adobe Illustrator 23.0.4, SVG Export Plug-In . SVG Version: 6.00 Build 0)  -->
<svg version="1.1" id="Capa_1" xmlns="http://www.w3.org/2000/svg" xmlns:xlink="http://www.w3.org/1999/xlink" x="0px" y="0px"
	 viewBox="0 0 400 200" style="enable-background:new 0 0 400 200;" xml:space="preserve">
<style type="text/css">
	.st0{fill:#394559;}
	.st1{fill:#8CC152;}
</style>
<g id="Grupo_7236" transform="translate(-24.182 -12.766)">
	<g id="_4" transform="translate(24.182 14.9)">
		<g id="Grupo_7233">
			<path id="Trazado_5643" class="st0" d="M137.9,121.1L137.9,121.1c0,4.1-3.4,7.5-7.5,7.5h-11.3v23.5c0,4.3-3.5,7.8-7.8,7.8l0,0
				l0,0c-4.3,0-7.8-3.5-7.8-7.8l0,0v-23.5H53.2c-5.6,0-10.2-4.6-10.2-10.2l0,0l0,0c0-1.8,0.4-3.5,1.3-5l40.2-71.7
				c1.3-2.3,3.7-3.7,6.3-3.7l0,0c4,0,7.2,3.2,7.2,7.2c0,1.2-0.3,2.4-0.9,3.5l-35.9,65h42.3V90.3c0-4.3,3.5-7.8,7.8-7.8l0,0
				c4.3,0,7.8,3.5,7.8,7.8v23.3h11.3C134.6,113.6,137.9,117,137.9,121.1z"/>
		</g>
	</g>
	<g id="_3" transform="translate(250.931 14.9)">
		<g id="Grupo_7234">
			<path id="Trazado_5644" class="st0" d="M120.2,99.3c7.2,5.7,10.8,13.4,10.8,23c0.1,7.1-1.9,14.1-5.8,20
				c-4.1,6-9.9,10.7-16.5,13.6c-7.1,3.3-15.5,4.9-25,4.9c-7.8,0-15.6-1.2-23.1-3.5c-4.6-1.4-9.2-3.2-13.5-5.4
				c-3.7-1.9-5.1-6.4-3.2-10.1c0,0,0,0,0,0l0,0c1.9-3.6,6.4-5,10-3.2c0.1,0,0.2,0.1,0.2,0.1c3.2,1.8,6.5,3.4,10,4.6
				c5.9,2.1,12.2,3.1,18.5,3.1c10,0,17.8-2.1,23.5-6.4c5.5-4,8.7-10.4,8.5-17.2c0-7.2-2.8-12.7-8.5-16.5c-5.7-3.8-13.7-5.7-24-5.7
				h-9.2c-4.1,0-7.5-3.4-7.5-7.5c0,0,0,0,0,0l0,0c0-2,0.8-3.9,2.2-5.3l31-34.7H54c-4.2,0-7.5-3.3-7.6-7.5l0,0c0-4.2,3.3-7.6,7.5-7.7
				c0,0,0.1,0,0.1,0h62.5c4.1,0,7.5,3.4,7.5,7.5l0,0c0,2-0.8,3.9-2.2,5.3L87.3,89.2l3.8,0.5C103.3,90.4,113,93.6,120.2,99.3z"/>
		</g>
	</g>
	<g id="Grupo_7235" transform="translate(133.986 12.766)">
		<path id="Trazado_5645" class="st1" d="M97,123.8v-7.7c0-2-1.7-3.6-3.7-3.6c-2,0-3.5,1.6-3.6,3.6v7.7c-3.2,2-4.2,6.3-2.2,9.5
			c2,3.2,6.3,4.2,9.5,2.2s4.2-6.3,2.2-9.5C98.6,125.1,97.9,124.4,97,123.8L97,123.8z"/>
		<path id="Trazado_5646" class="st1" d="M144.2,86.5h-4v-0.1h-79C64.3,64.2,75.2,53.5,94,53.5c14.8,0,24.7,6.1,29.8,20.1
			c1.6,4.3,6.4,6.4,10.6,4.8c4.3-1.6,6.4-6.4,4.8-10.6c-0.1-0.1-0.1-0.3-0.2-0.4c-1.8-4.3-4.3-8.4-7.3-12C123,44.7,109.7,38,93.3,38
			c-16.5,0-28.4,6.7-37.2,17.4S43,81.2,43,101.1s4.4,35.1,13.2,45.8s21.4,16,37.9,16c16.4,0,29-5.3,37.8-16
			c8.8-10.7,13.2-26,13.2-45.8C145.1,96.2,144.8,91.4,144.2,86.5z M119.3,137.3c-5.7,8.1-14.1,12.2-25.3,12.2s-19.6-4.1-25.3-12.2
			c-5.7-8.1-8.5-20.2-8.5-36.2c0-0.5,0-1.1,0-1.6h67.5c0,0.5,0,1,0,1.6C127.8,117.1,125,129.2,119.3,137.3z"/>
	</g>
</g>
<g>
</g>
<g>
</g>
<g>
</g>
<g>
</g>
<g>
</g>
<g>
</g>
<g>
</g>
<g>
</g>
<g>
</g>
<g>
</g>
<g>
</g>
</svg>
