<?xml version="1.0" encoding="utf-8"?>
<!-- Generator: Adobe Illustrator 23.0.4, SVG Export Plug-In . SVG Version: 6.00 Build 0)  -->
<svg version="1.1" id="Capa_1" xmlns="http://www.w3.org/2000/svg" xmlns:xlink="http://www.w3.org/1999/xlink" x="0px" y="0px"
	 viewBox="0 0 400 200" style="enable-background:new 0 0 400 200;" xml:space="preserve">
<style type="text/css">
	.st0{fill:#394559;}
	.st1{fill:#CDDA49;}
	.st2{fill:#8CC152;}
</style>
<g id="Grupo_7242" transform="translate(-796.725 -76.91)">
	<g id="_4">
		<g id="Grupo_7238">
			<g id="Grupo_7237">
				<path id="Trazado_5647" class="st0" d="M937.5,197L937.5,197c0,4.1-3.4,7.5-7.5,7.5l0,0h-11.4v23.6c0,4.3-3.5,7.9-7.9,7.9
					c0,0,0,0,0,0l0,0c-4.3,0-7.9-3.5-7.9-7.9v0v-23.6h-50.4c-5.7,0-10.3-4.6-10.3-10.2l0,0c0-1.8,0.5-3.5,1.3-5l40.3-71.9
					c1.3-2.3,3.7-3.7,6.3-3.7l0,0c4,0,7.2,3.2,7.2,7.2c0,1.2-0.3,2.4-0.9,3.5l-36,65.1h42.5v-23.4c0-4.3,3.5-7.9,7.9-7.9
					c0,0,0,0,0,0l0,0c4.3,0,7.9,3.5,7.9,7.9c0,0,0,0,0,0v23.4H930C934.1,189.5,937.5,192.9,937.5,197C937.5,197,937.5,197,937.5,197
					z"/>
			</g>
		</g>
	</g>
	<g id="Grupo_7239">
		<path id="Trazado_5648" class="st1" d="M1023.5,200.2c-4.2,2.9-8.9,5-13.8,6.4l15.2,32.6c1.8,3.8,6.3,5.5,10.1,3.7
			c3.8-1.8,5.5-6.3,3.7-10.1L1023.5,200.2z"/>
		<path id="Trazado_5649" class="st2" d="M1044.7,160.2c0-26.7-21.6-48.3-48.3-48.4c-26.7,0-48.3,21.6-48.4,48.3
			c0,26.7,21.6,48.3,48.3,48.4c9.7,0,19.1-2.9,27.1-8.3C1036.7,191.2,1044.7,176.2,1044.7,160.2z M1030.9,160.2
			c0,19-15.4,34.5-34.5,34.5c-19,0-34.5-15.4-34.5-34.5s15.4-34.5,34.5-34.5c0,0,0,0,0,0C1015.5,125.8,1030.9,141.2,1030.9,160.2
			L1030.9,160.2z"/>
	</g>
	<g id="_4-2">
		<g id="Grupo_7241">
			<g id="Grupo_7240">
				<path id="Trazado_5650" class="st0" d="M1151.2,197L1151.2,197c0,4.1-3.4,7.5-7.5,7.5h-11.4v23.6c0,4.3-3.5,7.9-7.9,7.9l0,0
					c-4.3,0-7.9-3.5-7.9-7.9v-23.6h-50.4c-5.7,0-10.3-4.6-10.3-10.2c0,0,0,0,0,0l0,0c0-1.8,0.5-3.5,1.3-5l40.3-71.9
					c1.3-2.3,3.7-3.7,6.3-3.7l0,0c4,0,7.2,3.2,7.2,7.2c0,1.2-0.3,2.4-0.9,3.5l-36,65.1h42.5v-23.4c0-4.3,3.5-7.9,7.9-7.9
					c0,0,0,0,0,0l0,0c4.3,0,7.9,3.5,7.9,7.9v23.4h11.4C1147.8,189.5,1151.2,192.9,1151.2,197C1151.2,197,1151.2,197,1151.2,197z"/>
			</g>
		</g>
	</g>
</g>
<g>
</g>
<g>
</g>
<g>
</g>
<g>
</g>
<g>
</g>
<g>
</g>
<g>
</g>
<g>
</g>
<g>
</g>
<g>
</g>
<g>
</g>
</svg>
